<svg width="40" height="41" viewBox="0 0 40 41" fill="none" xmlns="http://www.w3.org/2000/svg">
<path d="M36.6666 20.7084C36.6666 21.2834 36.1999 21.7501 35.6249 21.7501H33.3333V26.9584C33.3333 27.8977 32.9601 28.7986 32.2959 29.4628C31.6317 30.1269 30.7309 30.5001 29.7916 30.5001H25.2083C24.269 30.5001 23.3681 30.1269 22.7039 29.4628C22.0397 28.7986 21.6666 27.8977 21.6666 26.9584V21.7501H18.3333V30.2918C18.3333 31.2311 17.9601 32.1319 17.2959 32.7961C16.6317 33.4603 15.7309 33.8334 14.7916 33.8334H10.2083C9.26895 33.8334 8.36811 33.4603 7.70392 32.7961C7.03973 32.1319 6.66659 31.2311 6.66659 30.2918V21.7501H4.37492C4.09865 21.7501 3.8337 21.6403 3.63835 21.445C3.443 21.2496 3.33325 20.9847 3.33325 20.7084C3.33325 20.4321 3.443 20.1672 3.63835 19.9718C3.8337 19.7765 4.09865 19.6667 4.37492 19.6667H6.66659V10.7084C6.66659 9.76911 7.03973 8.86827 7.70392 8.20408C8.36811 7.53989 9.26895 7.16675 10.2083 7.16675H14.7916C15.7309 7.16675 16.6317 7.53989 17.2959 8.20408C17.9601 8.86827 18.3333 9.76911 18.3333 10.7084V19.6667H21.6666V14.0417C21.6666 13.1024 22.0397 12.2016 22.7039 11.5374C23.3681 10.8732 24.269 10.5001 25.2083 10.5001H29.7916C30.7309 10.5001 31.6317 10.8732 32.2959 11.5374C32.9601 12.2016 33.3333 13.1024 33.3333 14.0417V19.6667H35.6249C36.1999 19.6667 36.6666 20.1334 36.6666 20.7084ZM31.2499 14.0417C31.2499 13.655 31.0963 13.284 30.8228 13.0106C30.5493 12.7371 30.1784 12.5834 29.7916 12.5834H25.2083C24.8215 12.5834 24.4506 12.7371 24.1771 13.0106C23.9036 13.284 23.7499 13.655 23.7499 14.0417V26.9584C23.7499 27.7643 24.4033 28.4168 25.2083 28.4168H29.7916C30.1784 28.4168 30.5493 28.2631 30.8228 27.9896C31.0963 27.7161 31.2499 27.3452 31.2499 26.9584V14.0417ZM14.7916 9.25008H10.2083C9.82148 9.25008 9.45055 9.40373 9.17706 9.67722C8.90357 9.95071 8.74992 10.3216 8.74992 10.7084V30.2918C8.74992 31.0976 9.40325 31.7501 10.2083 31.7501H14.7916C15.1784 31.7501 15.5493 31.5964 15.8228 31.323C16.0963 31.0495 16.2499 30.6785 16.2499 30.2918V10.7084C16.2499 10.3216 16.0963 9.95071 15.8228 9.67722C15.5493 9.40373 15.1784 9.25008 14.7916 9.25008Z" fill="#9AA0A6"/>
</svg>
