<svg width="35" height="35" viewBox="0 0 35 35" fill="none" xmlns="http://www.w3.org/2000/svg">
<path d="M7.65625 10.9375C7.36617 10.9375 7.08797 11.0527 6.88285 11.2579C6.67773 11.463 6.5625 11.7412 6.5625 12.0312C6.5625 12.3213 6.67773 12.5995 6.88285 12.8046C7.08797 13.0098 7.36617 13.125 7.65625 13.125H22.9688C23.2588 13.125 23.537 13.0098 23.7421 12.8046C23.9473 12.5995 24.0625 12.3213 24.0625 12.0312C24.0625 11.7412 23.9473 11.463 23.7421 11.2579C23.537 11.0527 23.2588 10.9375 22.9688 10.9375H7.65625ZM7.65625 15.3125C7.36617 15.3125 7.08797 15.4277 6.88285 15.6329C6.67773 15.838 6.5625 16.1162 6.5625 16.4062V20.7812C6.5625 21.0713 6.67773 21.3495 6.88285 21.5546C7.08797 21.7598 7.36617 21.875 7.65625 21.875H12.0312C12.3213 21.875 12.5995 21.7598 12.8046 21.5546C13.0098 21.3495 13.125 21.0713 13.125 20.7812V16.4062C13.125 16.1162 13.0098 15.838 12.8046 15.6329C12.5995 15.4277 12.3213 15.3125 12.0312 15.3125H7.65625ZM8.75 19.6875V17.5H10.9375V19.6875H8.75ZM16.4062 15.3125C16.1162 15.3125 15.838 15.4277 15.6329 15.6329C15.4277 15.838 15.3125 16.1162 15.3125 16.4062C15.3125 16.6963 15.4277 16.9745 15.6329 17.1796C15.838 17.3848 16.1162 17.5 16.4062 17.5H22.9688C23.2588 17.5 23.537 17.3848 23.7421 17.1796C23.9473 16.9745 24.0625 16.6963 24.0625 16.4062C24.0625 16.1162 23.9473 15.838 23.7421 15.6329C23.537 15.4277 23.2588 15.3125 22.9688 15.3125H16.4062ZM16.4062 19.6875C16.1162 19.6875 15.838 19.8027 15.6329 20.0079C15.4277 20.213 15.3125 20.4912 15.3125 20.7812C15.3125 21.0713 15.4277 21.3495 15.6329 21.5546C15.838 21.7598 16.1162 21.875 16.4062 21.875H22.9688C23.2588 21.875 23.537 21.7598 23.7421 21.5546C23.9473 21.3495 24.0625 21.0713 24.0625 20.7812C24.0625 20.4912 23.9473 20.213 23.7421 20.0079C23.537 19.8027 23.2588 19.6875 22.9688 19.6875H16.4062ZM2.1875 8.75C2.1875 7.58968 2.64844 6.47688 3.46891 5.65641C4.28938 4.83594 5.40218 4.375 6.5625 4.375H24.0625C25.2228 4.375 26.3356 4.83594 27.1561 5.65641C27.9766 6.47688 28.4375 7.58968 28.4375 8.75C29.5978 8.75 30.7106 9.21094 31.5311 10.0314C32.3516 10.8519 32.8125 11.9647 32.8125 13.125V22.9688C32.8125 24.4192 32.2363 25.8102 31.2107 26.8357C30.1852 27.8613 28.7942 28.4375 27.3438 28.4375H7.65625C6.20585 28.4375 4.81485 27.8613 3.78926 26.8357C2.76367 25.8102 2.1875 24.4192 2.1875 22.9688V8.75ZM27.3438 22.9688C27.0537 22.9688 26.7755 22.8535 26.5704 22.6484C26.3652 22.4433 26.25 22.1651 26.25 21.875V8.75C26.25 8.16984 26.0195 7.61344 25.6093 7.2032C25.1991 6.79297 24.6427 6.5625 24.0625 6.5625H6.5625C5.98234 6.5625 5.42594 6.79297 5.0157 7.2032C4.60547 7.61344 4.375 8.16984 4.375 8.75V22.9688C4.375 23.839 4.7207 24.6736 5.33606 25.2889C5.95141 25.9043 6.78601 26.25 7.65625 26.25H27.3438C28.214 26.25 29.0486 25.9043 29.6639 25.2889C30.2793 24.6736 30.625 23.839 30.625 22.9688V13.125C30.625 12.5448 30.3945 11.9884 29.9843 11.5782C29.5741 11.168 29.0177 10.9375 28.4375 10.9375V21.875C28.4375 22.1651 28.3223 22.4433 28.1171 22.6484C27.912 22.8535 27.6338 22.9688 27.3438 22.9688Z" fill="black"/>
</svg>
