<svg width="35" height="35" viewBox="0 0 35 35" fill="none" xmlns="http://www.w3.org/2000/svg">
<path d="M17.5 8.10979L7.29167 16.2765V27.7083H14.5833V21.875H20.4167V27.7083H27.7083V16.9779C27.7084 16.7592 27.6593 16.5433 27.5646 16.3461C27.47 16.149 27.3322 15.9756 27.1615 15.839L17.5 8.10979ZM17.5 4.375L28.9829 13.5625C29.495 13.9721 29.9084 14.4916 30.1926 15.0825C30.4769 15.6735 30.6246 16.3207 30.625 16.9765V27.7083C30.625 28.4819 30.3177 29.2237 29.7707 29.7707C29.2237 30.3177 28.4819 30.625 27.7083 30.625H7.29167C6.51812 30.625 5.77625 30.3177 5.22927 29.7707C4.68229 29.2237 4.375 28.4819 4.375 27.7083V16.2765C4.37505 15.8393 4.47338 15.4077 4.6627 15.0137C4.85202 14.6197 5.12749 14.2732 5.46875 14L17.5 4.375Z" fill="black"/>
</svg>
