<!DOCTYPE svg PUBLIC "-//W3C//DTD SVG 1.1//EN" "http://www.w3.org/Graphics/SVG/1.1/DTD/svg11.dtd">
<!-- Uploaded to: SVG Repo, www.svgrepo.com, Transformed by: SVG Repo Mixer Tools -->
<svg fill="#000000" height="800px" width="800px" version="1.1" id="Capa_1" xmlns="http://www.w3.org/2000/svg" xmlns:xlink="http://www.w3.org/1999/xlink" viewBox="0 0 512.002 512.002" xml:space="preserve">
<g id="SVGRepo_bgCarrier" stroke-width="0"/>
<g id="SVGRepo_tracerCarrier" stroke-linecap="round" stroke-linejoin="round"/>
<g id="SVGRepo_iconCarrier"> <g> <g> <path d="M505.462,157.409L354.591,6.537c-6.162-6.164-15.351-8.172-23.523-5.151c-8.174,3.023-13.839,10.529-14.509,19.219 l-11.941,155.214l-76.91,76.91l-21.939-21.939c-8.714-8.715-22.845-8.715-31.56,0c-8.715,8.715-8.715,22.845,0,31.56 l21.937,21.937l-43.874,43.876l-21.936-21.937c-8.714-8.714-22.845-8.715-31.56,0c-8.715,8.715-8.715,22.845,0,31.56 l21.939,21.939l-79.54,79.54l-3.078-3.078c-8.714-8.715-22.845-8.715-31.56,0c-8.715,8.715-8.715,22.845,0,31.56l37.718,37.718 c4.358,4.359,10.069,6.537,15.781,6.537c5.711,0,11.423-2.178,15.779-6.537c8.715-8.715,8.715-22.845,0-31.56l-3.078-3.078 l46.512-46.512c3.746,9.873,9.557,18.936,17.249,26.628c14.29,14.289,33.289,22.159,53.497,22.159 c20.21,0,39.208-7.87,53.497-22.159l75.441-75.435c29.496-29.501,29.496-77.499-0.003-106.998 c-7.692-7.69-16.755-13.5-26.628-17.245l43.883-43.882l155.214-11.939c8.69-0.668,16.194-6.333,19.219-14.507 C513.636,172.758,511.626,163.571,505.462,157.409z M287.37,343.943l-75.441,75.435c-5.859,5.86-13.649,9.087-21.936,9.087 c-8.287,0-16.078-3.229-21.939-9.087c-5.861-5.858-9.087-13.65-9.087-21.937s3.227-16.077,9.087-21.937l18.857-18.859 l56.599-56.597c5.859-5.847,13.64-9.067,21.918-9.067c8.288,0,16.081,3.227,21.942,9.084 C299.465,312.162,299.465,331.846,287.37,343.943z M350.485,161.514l6.856-89.108l82.252,82.254L350.485,161.514z"/> </g> </g> </g>
</svg>