<svg width="45" height="45" viewBox="0 0 45 45" fill="none" xmlns="http://www.w3.org/2000/svg">
<path d="M22.5001 5.62504C21.0083 5.62504 19.5776 6.21768 18.5227 7.27257C17.4678 8.32746 16.8751 9.7582 16.8751 11.25C16.8751 12.7419 17.4678 14.1726 18.5227 15.2275C19.5776 16.2824 21.0083 16.875 22.5001 16.875C23.992 16.875 25.4227 16.2824 26.4776 15.2275C27.5325 14.1726 28.1251 12.7419 28.1251 11.25C28.1251 9.7582 27.5325 8.32746 26.4776 7.27257C25.4227 6.21768 23.992 5.62504 22.5001 5.62504ZM13.1251 11.25C13.1255 9.47624 13.6291 7.73893 14.5774 6.2399C15.5257 4.74087 16.8798 3.54163 18.4825 2.78147C20.0852 2.02131 21.8706 1.73142 23.6314 1.94547C25.3923 2.15952 27.0563 2.86873 28.4301 3.99072C29.804 5.11271 30.8314 6.60145 31.3929 8.28402C31.9545 9.96659 32.0272 11.774 31.6026 13.4962C31.1779 15.2184 30.2734 16.7848 28.9941 18.0135C27.7148 19.2422 26.1131 20.0828 24.3751 20.4375V31.875H20.6251V20.4375C18.5076 20.0053 16.6044 18.8547 15.2377 17.1805C13.871 15.5063 13.1247 13.4113 13.1251 11.25ZM5.82201 20.625H15.0001V24.375H9.17826L7.71951 37.5H37.2808L35.822 24.375H30.0001V20.625H39.1783L41.4695 41.25H3.53076L5.82201 20.625Z" fill="white"/>
</svg>
