<svg width="35" height="35" viewBox="0 0 35 35" fill="none" xmlns="http://www.w3.org/2000/svg">
<path d="M13.1249 18.9584H27.7083L22.677 12.3959L19.3228 16.7709L17.0624 13.8542L13.1249 18.9584ZM4.37492 30.6251C3.57284 30.6251 2.88645 30.3397 2.31575 29.769C1.74506 29.1983 1.45922 28.5115 1.45825 27.7084V8.75008H4.37492V27.7084H29.1666V30.6251H4.37492ZM10.2083 24.7917C9.40617 24.7917 8.71978 24.5064 8.14909 23.9357C7.57839 23.365 7.29256 22.6781 7.29159 21.8751V5.83341C7.29159 5.03133 7.57742 4.34494 8.14909 3.77425C8.72075 3.20355 9.40714 2.91772 10.2083 2.91675H17.4999L20.4166 5.83341H30.6249C31.427 5.83341 32.1139 6.11925 32.6855 6.69091C33.2572 7.26258 33.5426 7.94897 33.5416 8.75008V21.8751C33.5416 22.6772 33.2562 23.364 32.6855 23.9357C32.1149 24.5074 31.428 24.7927 30.6249 24.7917H10.2083ZM10.2083 21.8751H30.6249V8.75008H19.2135L16.2968 5.83341H10.2083V21.8751Z" fill="black"/>
</svg>
