<!DOCTYPE svg PUBLIC "-//W3C//DTD SVG 1.1//EN" "http://www.w3.org/Graphics/SVG/1.1/DTD/svg11.dtd">
<!-- Uploaded to: SVG Repo, www.svgrepo.com, Transformed by: SVG Repo Mixer Tools -->
<svg fill="#FE0000" width="800px" height="800px" viewBox="0 0 24 24" xmlns="http://www.w3.org/2000/svg">
<g id="SVGRepo_bgCarrier" stroke-width="0"/>
<g id="SVGRepo_tracerCarrier" stroke-linecap="round" stroke-linejoin="round"/>
<g id="SVGRepo_iconCarrier">
<path d="M12,22a1,1,0,0,0,.707-.293l9-9a1,1,0,0,0,.29-.784l-.643-8.357a1,1,0,0,0-.92-.921L12.077,2a1,1,0,0,0-.784.29l-9,9a1,1,0,0,0,0,1.414l9,9A1,1,0,0,0,12,22Zm.382-17.968,7.044.542.542,7.044L12,19.586,4.414,12Zm2.061,5.525a2,2,0,1,1,2.828,0A2,2,0,0,1,14.443,9.557Z"/>
</g>
</svg>