<svg width="35" height="35" viewBox="0 0 35 35" fill="none" xmlns="http://www.w3.org/2000/svg">
<path d="M17.5001 20.4167C17.7885 20.4167 18.0705 20.3312 18.3103 20.171C18.5501 20.0107 18.737 19.783 18.8474 19.5165C18.9578 19.25 18.9867 18.9568 18.9304 18.6739C18.8741 18.391 18.7352 18.1312 18.5313 17.9272C18.3273 17.7233 18.0675 17.5844 17.7846 17.5281C17.5017 17.4718 17.2085 17.5007 16.942 17.6111C16.6755 17.7215 16.4478 17.9084 16.2875 18.1482C16.1273 18.388 16.0417 18.67 16.0417 18.9584C16.0417 19.3452 16.1954 19.7161 16.4689 19.9896C16.7424 20.2631 17.1133 20.4167 17.5001 20.4167ZM24.7917 20.4167C25.0802 20.4167 25.3621 20.3312 25.602 20.171C25.8418 20.0107 26.0287 19.783 26.1391 19.5165C26.2494 19.25 26.2783 18.9568 26.2221 18.6739C26.1658 18.391 26.0269 18.1312 25.8229 17.9272C25.619 17.7233 25.3591 17.5844 25.0763 17.5281C24.7934 17.4718 24.5001 17.5007 24.2337 17.6111C23.9672 17.7215 23.7394 17.9084 23.5792 18.1482C23.4189 18.388 23.3334 18.67 23.3334 18.9584C23.3334 19.3452 23.4871 19.7161 23.7605 19.9896C24.034 20.2631 24.405 20.4167 24.7917 20.4167ZM17.5001 26.2501C17.7885 26.2501 18.0705 26.1646 18.3103 26.0043C18.5501 25.8441 18.737 25.6163 18.8474 25.3498C18.9578 25.0834 18.9867 24.7901 18.9304 24.5072C18.8741 24.2243 18.7352 23.9645 18.5313 23.7605C18.3273 23.5566 18.0675 23.4177 17.7846 23.3614C17.5017 23.3052 17.2085 23.334 16.942 23.4444C16.6755 23.5548 16.4478 23.7417 16.2875 23.9815C16.1273 24.2214 16.0417 24.5033 16.0417 24.7917C16.0417 25.1785 16.1954 25.5495 16.4689 25.8229C16.7424 26.0964 17.1133 26.2501 17.5001 26.2501ZM24.7917 26.2501C25.0802 26.2501 25.3621 26.1646 25.602 26.0043C25.8418 25.8441 26.0287 25.6163 26.1391 25.3498C26.2494 25.0834 26.2783 24.7901 26.2221 24.5072C26.1658 24.2243 26.0269 23.9645 25.8229 23.7605C25.619 23.5566 25.3591 23.4177 25.0763 23.3614C24.7934 23.3052 24.5001 23.334 24.2337 23.4444C23.9672 23.5548 23.7394 23.7417 23.5792 23.9815C23.4189 24.2214 23.3334 24.5033 23.3334 24.7917C23.3334 25.1785 23.4871 25.5495 23.7605 25.8229C24.034 26.0964 24.405 26.2501 24.7917 26.2501ZM10.2084 20.4167C10.4968 20.4167 10.7788 20.3312 11.0186 20.171C11.2584 20.0107 11.4454 19.783 11.5557 19.5165C11.6661 19.25 11.695 18.9568 11.6387 18.6739C11.5825 18.391 11.4436 18.1312 11.2396 17.9272C11.0357 17.7233 10.7758 17.5844 10.4929 17.5281C10.21 17.4718 9.91681 17.5007 9.65033 17.6111C9.38386 17.7215 9.1561 17.9084 8.99585 18.1482C8.83561 18.388 8.75008 18.67 8.75008 18.9584C8.75008 19.3452 8.90373 19.7161 9.17722 19.9896C9.45071 20.2631 9.82164 20.4167 10.2084 20.4167ZM27.7084 5.83341H26.2501V4.37508C26.2501 3.98831 26.0964 3.61737 25.8229 3.34388C25.5495 3.07039 25.1785 2.91675 24.7917 2.91675C24.405 2.91675 24.034 3.07039 23.7605 3.34388C23.4871 3.61737 23.3334 3.98831 23.3334 4.37508V5.83341H11.6667V4.37508C11.6667 3.98831 11.5131 3.61737 11.2396 3.34388C10.9661 3.07039 10.5952 2.91675 10.2084 2.91675C9.82164 2.91675 9.45071 3.07039 9.17722 3.34388C8.90373 3.61737 8.75008 3.98831 8.75008 4.37508V5.83341H7.29175C6.13143 5.83341 5.01863 6.29435 4.19816 7.11482C3.37768 7.93529 2.91675 9.04809 2.91675 10.2084V27.7084C2.91675 28.8687 3.37768 29.9815 4.19816 30.802C5.01863 31.6225 6.13143 32.0834 7.29175 32.0834H27.7084C28.8687 32.0834 29.9815 31.6225 30.802 30.802C31.6225 29.9815 32.0834 28.8687 32.0834 27.7084V10.2084C32.0834 9.04809 31.6225 7.93529 30.802 7.11482C29.9815 6.29435 28.8687 5.83341 27.7084 5.83341ZM29.1667 27.7084C29.1667 28.0952 29.0131 28.4661 28.7396 28.7396C28.4661 29.0131 28.0952 29.1667 27.7084 29.1667H7.29175C6.90497 29.1667 6.53404 29.0131 6.26055 28.7396C5.98706 28.4661 5.83341 28.0952 5.83341 27.7084V14.5834H29.1667V27.7084ZM29.1667 11.6667H5.83341V10.2084C5.83341 9.82164 5.98706 9.45071 6.26055 9.17722C6.53404 8.90373 6.90497 8.75008 7.29175 8.75008H27.7084C28.0952 8.75008 28.4661 8.90373 28.7396 9.17722C29.0131 9.45071 29.1667 9.82164 29.1667 10.2084V11.6667ZM10.2084 26.2501C10.4968 26.2501 10.7788 26.1646 11.0186 26.0043C11.2584 25.8441 11.4454 25.6163 11.5557 25.3498C11.6661 25.0834 11.695 24.7901 11.6387 24.5072C11.5825 24.2243 11.4436 23.9645 11.2396 23.7605C11.0357 23.5566 10.7758 23.4177 10.4929 23.3614C10.21 23.3052 9.91681 23.334 9.65033 23.4444C9.38386 23.5548 9.1561 23.7417 8.99585 23.9815C8.83561 24.2214 8.75008 24.5033 8.75008 24.7917C8.75008 25.1785 8.90373 25.5495 9.17722 25.8229C9.45071 26.0964 9.82164 26.2501 10.2084 26.2501Z" fill="black"/>
</svg>
