<svg width="22" height="23" viewBox="0 0 22 23" fill="none" xmlns="http://www.w3.org/2000/svg">
<g clip-path="url(#clip0_18_56)">
<path d="M16.1455 14.7224C17.4769 12.9056 18.0732 10.6531 17.8152 8.41549C17.5571 6.17789 16.4637 4.12025 14.7537 2.65421C13.0437 1.18817 10.8432 0.421861 8.59241 0.508586C6.34165 0.595312 4.20664 1.52868 2.6145 3.12195C1.02237 4.71523 0.0905274 6.85091 0.00541242 9.10173C-0.0797026 11.3525 0.688183 13.5525 2.15544 15.2615C3.6227 16.9704 5.68113 18.0624 7.91891 18.3188C10.1567 18.5753 12.4088 17.9774 14.2246 16.6447H14.2233C14.2636 16.6997 14.3085 16.7524 14.358 16.8028L19.6518 22.0965C19.9096 22.3545 20.2593 22.4996 20.6241 22.4997C20.9888 22.4998 21.3387 22.355 21.5967 22.0972C21.8547 21.8394 21.9997 21.4896 21.9999 21.1249C22 20.7601 21.8552 20.4103 21.5974 20.1523L16.3036 14.8585C16.2545 14.8087 16.2016 14.7641 16.1455 14.7224ZM16.5003 9.43691C16.5003 10.43 16.3047 11.4134 15.9246 12.3309C15.5445 13.2485 14.9875 14.0822 14.2853 14.7844C13.583 15.4866 12.7493 16.0437 11.8318 16.4237C10.9143 16.8038 9.93088 16.9994 8.93776 16.9994C7.94464 16.9994 6.96124 16.8038 6.04372 16.4237C5.12619 16.0437 4.29251 15.4866 3.59026 14.7844C2.88802 14.0822 2.33097 13.2485 1.95092 12.3309C1.57087 11.4134 1.37526 10.43 1.37526 9.43691C1.37526 7.43121 2.17202 5.50765 3.59026 4.08941C5.00851 2.67117 6.93206 1.87441 8.93776 1.87441C10.9435 1.87441 12.867 2.67117 14.2853 4.08941C15.7035 5.50765 16.5003 7.43121 16.5003 9.43691Z" fill="#9AA0A6"/>
</g>
<defs>
<clipPath id="clip0_18_56">
<rect width="22" height="22" fill="white" transform="translate(0 0.5)"/>
</clipPath>
</defs>
</svg>
